<svg width="728" height="226" viewBox="0 0 728 226" fill="none" xmlns="http://www.w3.org/2000/svg">
  <path
    d="M34.5989 82.5554H65.8223L83.7246 129.945L90.0295 148.535H90.7408L97.0578 129.945L114.249 82.5675H145.472V196.611H117.407V162.917C117.407 151.331 119.818 133.61 121.265 122.206H120.554L111.078 148.872L95.2857 187.293H84.0621L68.2696 148.872L59.1437 122.206H58.4444C59.8429 133.61 62.3022 151.331 62.3022 162.917V196.599H34.5748L34.5989 82.5554Z"
    fill="#242C66"/>
  <path
    d="M170.041 82.5554H200.179V145.014C200.179 165.364 205.448 172.742 217.37 172.742C229.293 172.742 234.923 165.364 234.923 145.014V82.5554H264.049V141.506C264.049 180.457 249.305 198.697 217.37 198.697C185.436 198.697 170.005 180.457 170.005 141.506L170.041 82.5554Z"
    fill="#242C66"/>
  <path
    d="M297.069 161.687C305.146 168.173 315.32 172.742 323.735 172.742C332.861 172.742 336.719 169.752 336.719 164.665C336.719 159.228 330.932 157.431 321.288 153.61L307.075 147.642C294.79 142.736 284.085 132.38 284.085 115.889C284.085 96.4192 301.638 80.4579 326.544 80.4579C340.669 80.4699 354.244 85.9377 364.434 95.72L349.353 114.659C341.637 109.222 334.971 106.425 326.544 106.425C319.178 106.425 314.609 109.053 314.609 114.141C314.609 119.578 321.107 121.506 331.487 125.545L345.35 130.982C359.564 136.6 367.629 146.425 367.629 162.205C367.629 181.494 351.499 198.697 323.024 198.697C307.145 198.626 291.823 192.835 279.866 182.386L297.069 161.687Z"
    fill="#242C66"/>
  <path d="M488.315 82.5554H562.697V107.872H518.49V129.571H556.38V154.888H518.49V196.647H488.351L488.315 82.5554Z"
        fill="#242C66"/>
  <path d="M609.592 108.872H579.417V196.599H609.592V108.872Z" fill="#242C66"/>
  <path
    d="M694.293 196.599L674.643 158.348H663.046V196.599H632.907V82.5554H676.065C700.634 82.5554 721.683 90.9942 721.683 119.397C721.683 135.72 714.317 146.425 703.262 152.38L728 196.599H694.293ZM663.046 134.49H673.895C685.818 134.49 692.135 129.222 692.135 119.397C692.135 109.572 685.818 106.425 673.895 106.425H663.046V134.49Z"
    fill="#242C66"/>
  <path d="M442.697 82.5554H406.194L371.462 196.599H477.393L442.697 82.5554Z" fill="#F09021"/>
  <path
    d="M446.893 175.165L460.708 196.599H447.58L437.598 181.156L424.952 194.55L421.48 145.943L464.301 169.173L446.893 175.165Z"
    fill="white"/>
  <path d="M413.529 130.686L410.855 132.412L416.966 141.883L419.64 140.158L413.529 130.686Z" fill="white"/>
  <path d="M402.048 145.099L401.377 148.21L412.395 150.586L413.066 147.475L402.048 145.099Z" fill="white"/>
  <path d="M413.626 157.261L404.154 163.372L405.88 166.046L415.351 159.935L413.626 157.261Z" fill="white"/>
  <path d="M444.511 137.381L435.04 143.492L436.765 146.166L446.236 140.055L444.511 137.381Z" fill="white"/>
  <path d="M428.677 127.944L426.3 138.963L429.411 139.634L431.788 128.615L428.677 127.944Z" fill="white"/>
  <path
    d="M25.6297 74.4904L140.517 75.4428H145.472V65.1355H129.439L129.571 46.5823C129.624 40.4966 128.463 34.4615 126.157 28.8294C123.852 23.1973 120.447 18.0811 116.141 13.7796C111.841 9.43209 106.724 5.97685 101.084 3.61221C95.4448 1.24757 89.3937 0.0201189 83.2785 0.000288929H82.9289C70.7019 -0.0427302 58.9475 4.71966 50.1986 13.2612C45.8377 17.4922 42.3636 22.5498 39.9791 28.1384C37.5947 33.727 36.3476 39.7348 36.3108 45.8107L36.1661 65.0993H16.1421L14.37 80.7713L0 192.862L2.41108 194.658C30.4398 215.153 46.16 225.327 79.3123 225.327C106.762 225.327 121.193 218.347 141.024 204.447C98.9505 225.472 55.0931 218.817 11.0668 188.028L24.8582 80.7351L25.6297 74.4904ZM49.8249 45.9795C49.849 41.6609 50.7322 37.3903 52.4232 33.4164C54.1141 29.4426 56.579 25.845 59.6741 22.8332C65.88 16.7453 74.2356 13.3493 82.9289 13.3817H83.1821C87.5272 13.3955 91.8268 14.2673 95.8341 15.9472C99.8413 17.6271 103.477 20.0819 106.533 23.1707C109.589 26.2257 112.006 29.8585 113.643 33.8573C115.281 37.8561 116.105 42.1409 116.069 46.4617L115.924 65.1114H49.6199L49.8249 45.9795Z"
    fill="#F09021"/>
  <path
    d="M594.499 44.6052C591.615 44.6072 588.772 45.2777 586.191 46.5641C583.611 47.8505 581.363 49.7178 579.626 52.0192C577.889 54.3206 576.709 56.9935 576.179 59.8278C575.649 62.6622 575.784 65.5808 576.572 68.3543C576.82 69.3539 577.184 70.3209 577.657 71.2355C581.479 78.2397 594.535 98.336 594.535 98.336C594.535 98.336 607.567 78.2397 611.412 71.2355C611.886 70.3209 612.25 69.3539 612.497 68.3543C613.286 65.5798 613.421 62.6601 612.89 59.8249C612.36 56.9896 611.179 54.316 609.44 52.0144C607.702 49.7127 605.453 47.8457 602.871 46.5601C600.289 45.2745 597.444 44.6053 594.559 44.6052H594.499ZM594.499 71.4646C592.637 71.4651 590.83 70.8336 589.374 69.6735C587.917 68.5134 586.898 66.8934 586.482 65.0785C586.067 63.2637 586.279 61.3614 587.085 59.6831C587.892 58.0048 589.243 56.6498 590.92 55.8398C592.596 55.0299 594.498 54.8129 596.314 55.2244C598.13 55.6359 599.752 56.6516 600.916 58.1052C602.079 59.5588 602.715 61.3642 602.718 63.2261C602.722 65.088 602.094 66.896 600.936 68.3543C600.167 69.3246 599.189 70.1084 598.074 70.647C596.959 71.1857 595.737 71.4651 594.499 71.4646Z"
    fill="#5B0E41"/>
</svg>
